<svg version="1.1" xmlns="http://www.w3.org/2000/svg" viewBox="0 0 768 392" preserveAspectRatio="xMidYMid meet" xmlns:xlink="http://www.w3.org/1999/xlink" xmlns:svgjs="http://svgjs.dev/svgjs">

<path d="M0 0 C111.5 0 111.5 0 126 10 C127.609 11.083 127.609 11.083 129.25 12.188 C139.225 22.389 144.085 35.549 144.154 49.67 C144.16 50.638 144.16 50.638 144.167 51.626 C144.18 53.774 144.187 55.922 144.193 58.071 C144.201 59.617 144.209 61.163 144.218 62.709 C144.244 67.776 144.259 72.843 144.273 77.91 C144.279 79.66 144.284 81.41 144.29 83.16 C144.311 90.444 144.33 97.728 144.341 105.012 C144.357 115.421 144.391 125.83 144.448 136.239 C144.486 143.574 144.506 150.909 144.511 158.245 C144.515 162.618 144.527 166.99 144.559 171.363 C144.589 175.483 144.596 179.602 144.584 183.722 C144.584 185.224 144.592 186.726 144.609 188.228 C144.746 200.454 142.785 210.803 134.812 220.438 C125.341 230.018 116.572 232.008 103 236 C69.01 236 35.02 236 0 236 C0 158.12 0 80.24 0 0 Z M61 40 C61 91.48 61 142.96 61 196 C72.916 197.081 72.916 197.081 78.125 193.625 C84.713 186.658 84.437 176.416 84.388 167.425 C84.393 166.208 84.399 164.99 84.404 163.736 C84.415 160.426 84.413 157.116 84.403 153.806 C84.395 150.327 84.402 146.847 84.407 143.368 C84.413 137.529 84.405 131.691 84.391 125.852 C84.375 119.118 84.38 112.385 84.397 105.651 C84.41 99.849 84.412 94.047 84.404 88.244 C84.4 84.788 84.399 81.331 84.409 77.875 C84.419 74.022 84.405 70.169 84.388 66.316 C84.394 65.182 84.4 64.048 84.407 62.88 C84.345 55.141 83.708 49.104 78.438 43.062 C72.343 37.906 71.96 40 61 40 Z " fill="#010101" transform="translate(474,118)" class=""></path>
<path d="M0 0 C4.362 -0.061 8.717 0 13.078 0.082 C13.792 0.089 14.506 0.097 15.241 0.104 C32.333 0.334 50.098 4.572 62.906 16.586 C77.547 33.412 77.248 53.276 77.141 74.332 C77.136 76.06 77.131 77.788 77.127 79.516 C77.116 83.704 77.099 87.893 77.078 92.082 C69.272 92.105 61.467 92.123 53.661 92.134 C50.037 92.139 46.413 92.146 42.788 92.157 C39.294 92.168 35.799 92.174 32.304 92.177 C30.316 92.18 28.328 92.187 26.339 92.195 C24.538 92.195 24.538 92.195 22.699 92.196 C21.104 92.199 21.104 92.199 19.476 92.202 C17.078 92.082 17.078 92.082 16.078 91.082 C15.982 89.696 15.953 88.306 15.952 86.917 C15.948 86.032 15.945 85.148 15.941 84.236 C15.94 83.273 15.939 82.309 15.938 81.316 C15.919 79.292 15.9 77.267 15.879 75.242 C15.85 72.038 15.828 68.835 15.828 65.63 C15.824 62.546 15.79 59.463 15.75 56.379 C15.757 55.424 15.764 54.468 15.771 53.484 C15.686 48.833 15.6 46.753 12.665 42.982 C9.448 40.619 7.877 40.289 4.012 40.516 C0.407 41.571 -0.9 44.019 -2.922 47.082 C-4.259 49.757 -4.06 51.815 -4.076 54.811 C-4.084 56.031 -4.093 57.251 -4.102 58.507 C-4.106 59.866 -4.111 61.225 -4.115 62.584 C-4.123 64.01 -4.131 65.436 -4.14 66.862 C-4.166 71.552 -4.181 76.243 -4.195 80.934 C-4.201 82.549 -4.206 84.164 -4.211 85.779 C-4.233 92.499 -4.252 99.22 -4.263 105.94 C-4.279 115.567 -4.312 125.194 -4.369 134.821 C-4.408 141.591 -4.428 148.361 -4.433 155.132 C-4.437 159.174 -4.449 163.216 -4.481 167.259 C-4.511 171.066 -4.517 174.872 -4.506 178.679 C-4.505 180.072 -4.514 181.465 -4.531 182.858 C-4.625 190.693 -4.531 197.132 1.078 203.082 C4.142 204.614 6.695 204.311 10.078 204.082 C13.396 202.755 14.701 201.91 16.189 198.644 C17.395 193.811 17.435 189.179 17.492 184.215 C17.512 183.18 17.531 182.145 17.551 181.079 C17.61 177.789 17.657 174.498 17.703 171.207 C17.741 168.97 17.78 166.733 17.82 164.496 C17.916 159.025 18 153.554 18.078 148.082 C14.118 148.082 10.158 148.082 6.078 148.082 C6.078 136.862 6.078 125.642 6.078 114.082 C30.168 114.082 54.258 114.082 79.078 114.082 C79.078 155.992 79.078 197.902 79.078 241.082 C66.208 241.082 53.338 241.082 40.078 241.082 C36.751 233.318 36.751 233.318 36.016 229.707 C35.706 228.511 35.397 227.315 35.078 226.082 C34.418 225.752 33.758 225.422 33.078 225.082 C32.688 225.968 32.688 225.968 32.289 226.871 C28.017 234.671 18.925 238.772 11.078 242.082 C10.452 242.353 9.826 242.623 9.18 242.902 C2.296 245.569 -4.422 245.598 -11.734 245.582 C-12.929 245.61 -14.123 245.639 -15.354 245.668 C-27.205 245.694 -37.807 241.751 -46.922 234.082 C-61.986 219.081 -65.965 195.636 -66.08 175.307 C-66.081 174.232 -66.082 173.157 -66.083 172.049 C-66.088 170.888 -66.093 169.727 -66.098 168.531 C-66.113 164.716 -66.119 160.901 -66.125 157.086 C-66.129 155.088 -66.134 153.09 -66.138 151.092 C-66.15 145.524 -66.157 139.957 -66.161 134.39 C-66.165 127.248 -66.183 120.106 -66.212 112.964 C-66.234 107.404 -66.243 101.845 -66.245 96.285 C-66.246 92.983 -66.253 89.681 -66.27 86.379 C-66.383 62.066 -66.452 36.263 -48.797 17.395 C-35.216 4.582 -18.174 0.38 0 0 Z " fill="#010101" transform="translate(153.921875,112.91796875)"></path>
<path d="M0 0 C110.9 0 110.9 0 125.062 13.25 C136.018 25.468 136.351 40.219 136.261 55.848 C136.25 58.064 136.261 60.278 136.273 62.494 C136.289 76.188 135.819 90.557 125.992 101.168 C118.877 107.149 110.192 110.183 101 111 C102.196 111.041 103.392 111.082 104.625 111.125 C114.779 112.237 124.947 117.255 131.562 125 C139.298 136.689 138.531 149.525 138.391 162.953 C138.383 165.066 138.377 167.179 138.373 169.291 C138.358 174.815 138.319 180.339 138.275 185.862 C138.234 191.514 138.215 197.165 138.195 202.816 C138.153 213.878 138.082 224.939 138 236 C125.46 236 112.92 236 100 236 C99.974 230.136 99.948 224.272 99.922 218.23 C99.897 214.498 99.87 210.766 99.84 207.033 C99.792 201.119 99.748 195.205 99.729 189.291 C99.714 184.519 99.679 179.747 99.632 174.975 C99.617 173.161 99.609 171.348 99.608 169.534 C99.599 159.659 99.444 151.066 95 142 C94.531 141.005 94.062 140.01 93.578 138.984 C89.21 131.636 83.749 125.094 75.332 122.438 C67.937 121.05 60.55 120.875 53.879 124.637 C48.53 128.518 45.125 131.751 41.812 137.562 C41.159 138.678 40.505 139.793 39.832 140.941 C34.449 151.936 34.532 163.515 34.488 175.453 C34.471 177.207 34.453 178.961 34.434 180.715 C34.387 185.292 34.357 189.869 34.33 194.445 C34.295 199.958 34.238 205.471 34.185 210.983 C34.107 219.322 34.056 227.661 34 236 C22.78 236 11.56 236 0 236 C0 158.12 0 80.24 0 0 Z M41 47 C35.049 54.898 35.133 64.513 36 74 C37.174 77.731 38.811 80.772 41 84 C41.722 85.072 42.444 86.145 43.188 87.25 C50.893 94.784 58.763 97.39 69.31 97.451 C78.711 97.237 84.956 93.433 91.438 86.75 C97.153 79.732 99.712 72.73 99.316 63.66 C98.189 54.178 93.654 45.649 86.188 39.625 C70.291 28.807 53.388 33.615 41 47 Z " fill="#010101" transform="translate(248,118)"></path>
<path d="M0 0 C4.004 1.609 6.702 4.42 9.687 7.428 C10.243 7.981 10.8 8.534 11.373 9.104 C13.207 10.929 15.033 12.761 16.859 14.594 C18.131 15.864 19.404 17.135 20.676 18.405 C23.339 21.065 25.998 23.728 28.655 26.394 C32.067 29.818 35.488 33.232 38.912 36.644 C41.539 39.263 44.161 41.888 46.781 44.514 C48.041 45.775 49.303 47.035 50.566 48.294 C52.326 50.048 54.079 51.809 55.831 53.572 C56.358 54.095 56.884 54.618 57.427 55.156 C61 58.771 61 58.771 61 61 C51.1 61 41.2 61 31 61 C31 142.18 31 223.36 31 307 C10.87 307 -9.26 307 -30 307 C-30 225.82 -30 144.64 -30 61 C-39.9 61 -49.8 61 -60 61 C-56.204 56.572 -52.481 52.337 -48.362 48.248 C-47.834 47.721 -47.307 47.193 -46.763 46.649 C-45.045 44.932 -43.323 43.218 -41.602 41.504 C-40.399 40.303 -39.197 39.103 -37.995 37.902 C-34.851 34.761 -31.704 31.624 -28.556 28.487 C-25.336 25.278 -22.119 22.065 -18.902 18.854 C-12.604 12.566 -6.303 6.282 0 0 Z " fill="#020202" transform="translate(429,47)"></path>


<path d="M0 0 C15.18 0 30.36 0 46 0 C46 15.84 46 31.68 46 48 C30.82 48 15.64 48 0 48 C0 32.16 0 16.32 0 0 Z " fill="#040404" transform="translate(634,306)"></path>
<path d="M0 0 C1.32 0 2.64 0 4 0 C4.254 0.554 4.508 1.109 4.77 1.68 C5.114 2.404 5.458 3.129 5.812 3.875 C6.149 4.594 6.485 5.314 6.832 6.055 C7.995 8.305 7.995 8.305 11 10 C15.712 10.687 19.737 10.699 23.938 8.375 C26.218 5.749 27.624 3.185 29 0 C29.99 0 30.98 0 32 0 C31.432 5.961 29.374 9.842 24.938 13.875 C19.166 16.085 13.26 16.004 7.625 13.5 C4.367 10.398 1.898 7.091 0 3 C0 2.01 0 1.02 0 0 Z " fill="#1F1F1F" transform="translate(300,194)"></path>
</svg>